<svg width="81" height="26" viewBox="0 0 81 26" fill="none" xmlns="http://www.w3.org/2000/svg">
<path d="M6.155 0.429999V25H0.17V0.429999H6.155ZM28.1673 0.429999V5.225H21.6573V25H15.6723V5.225H9.16227V0.429999H28.1673ZM42.791 25.245C40.481 25.245 38.3576 24.7083 36.421 23.635C34.5076 22.5617 32.9793 21.0683 31.836 19.155C30.716 17.2183 30.156 15.0483 30.156 12.645C30.156 10.2417 30.716 8.08333 31.836 6.17C32.9793 4.25667 34.5076 2.76333 36.421 1.69C38.3576 0.616666 40.481 0.0799996 42.791 0.0799996C45.101 0.0799996 47.2126 0.616666 49.126 1.69C51.0626 2.76333 52.5793 4.25667 53.676 6.17C54.796 8.08333 55.356 10.2417 55.356 12.645C55.356 15.0483 54.796 17.2183 53.676 19.155C52.556 21.0683 51.0393 22.5617 49.126 23.635C47.2126 24.7083 45.101 25.245 42.791 25.245ZM42.791 19.785C44.751 19.785 46.3143 19.1317 47.481 17.825C48.671 16.5183 49.266 14.7917 49.266 12.645C49.266 10.475 48.671 8.74833 47.481 7.465C46.3143 6.15833 44.751 5.505 42.791 5.505C40.8076 5.505 39.221 6.14667 38.031 7.43C36.8643 8.71333 36.281 10.4517 36.281 12.645C36.281 14.815 36.8643 16.5533 38.031 17.86C39.221 19.1433 40.8076 19.785 42.791 19.785ZM80.6656 25H74.6806L64.6706 9.845V25H58.6856V0.429999H64.6706L74.6806 15.655V0.429999H80.6656V25Z" fill="white"/>
</svg>
